<svg xmlns="http://www.w3.org/2000/svg" viewBox="0 0 48 48" width="48" height="48">
  <path fill="#EA4335" d="M24 9.5c3.54 0 6.71 1.22 9.21 3.6l6.85-6.85C35.9 2.38 30.47 0 24 0 14.62 0 6.51 5.38 2.56 13.22l7.98 6.19c1.5-4.88 6.05-8.41 11.46-8.41z"></path>
  <path fill="#4285F4" d="M23.99 44.5c6.47 0 11.9-2.38 15.89-6.37l-7.73-6c-2.15 1.45-4.92 2.3-8.16 2.3-6.26 0-11.57-4.22-13.47-9.91l-7.98 6.19C6.51 39.62 14.62 44.5 23.99 44.5z"></path>
  <path fill="#FBBC05" d="M23.5 38.6c-2.24 0-4.42-.58-6.29-1.6l-8 6.2c2.93 1.88 6.38 2.97 10.29 2.97 2.74 0 5.27-.51 7.73-1.5l-7.73-6.07z"></path>
  <path fill="#34A853" d="M10.53 29.9c-.57-1.79-.88-3.68-.88-5.6 0-1.92.31-3.81.88-5.6l-7.98-6.19C1.19 16.58 0 20.22 0 24s1.19 7.42 2.56 10.68l7.97-6.18z"></path>
  <path fill="#EA4335" d="M24 5.5c2.91 0 5.63.88 7.94 2.58l5.93-5.93C35.8 2.08 30.54 0 24 0c-6.47 0-11.9 2.38-15.89 6.37l7.98 6.19c1.9-4.7 7.21-8.06 13.91-8.06z"></path>
</svg>